<?xml version="1.0" standalone="no"?>
<!DOCTYPE svg PUBLIC "-//W3C//DTD SVG 1.1//EN" "http://www.w3.org/Graphics/SVG/1.1/DTD/svg11.dtd" >
<svg xmlns="http://www.w3.org/2000/svg" xmlns:xlink="http://www.w3.org/1999/xlink" version="1.1">
<metadata>
Created by FontForge 20201107 at Sat Sep  1 16:20:52 2012
 By 
Typeface (c) (your company). 2012. All Rights Reserved
</metadata>
<defs>
<font id="TimesNewArial" horiz-adv-x="1014" >
  <font-face 
    font-family="Times New Arial"
    font-weight="400"
    font-stretch="normal"
    units-per-em="2048"
    panose-1="2 0 5 0 0 0 0 0 0 0"
    ascent="1638"
    descent="-410"
    x-height="1026"
    cap-height="1408"
    bbox="-342 -418 2048 1716"
    underline-thickness="150"
    underline-position="-292"
    unicode-range="U+0020-F002"
  />
<missing-glyph horiz-adv-x="1024" 
d="M100 0v1434h824v-1434h-824zM150 50h724v1334h-724v-1334zM325 1148q31 28 58 43q53 30 112 30q92 0 148 -47.5t56 -127.5q0 -49 -23 -98.5t-87 -129.5q-63 -80 -99 -132t-36 -99q0 -38 24 -133h-32q-35 97 -35 148q0 76 81.5 218t81.5 217q0 57 -33 90t-91 33
q-38 0 -69 -17q-26 -15 -56 -40v45zM389 334l57 58q11 10 20 10q10 0 22 -11l56 -60q9 -11 9 -20q0 -11 -10 -22l-56 -62q-14 -14 -21 -14q-11 0 -20 10l-61 71q-7 9 -7 18q0 10 11 22z" />
    <glyph glyph-name=".notdef" horiz-adv-x="1024" 
d="M100 0v1434h824v-1434h-824zM150 50h724v1334h-724v-1334zM325 1148q31 28 58 43q53 30 112 30q92 0 148 -47.5t56 -127.5q0 -49 -23 -98.5t-87 -129.5q-63 -80 -99 -132t-36 -99q0 -38 24 -133h-32q-35 97 -35 148q0 76 81.5 218t81.5 217q0 57 -33 90t-91 33
q-38 0 -69 -17q-26 -15 -56 -40v45zM389 334l57 58q11 10 20 10q10 0 22 -11l56 -60q9 -11 9 -20q0 -11 -10 -22l-56 -62q-14 -14 -21 -14q-11 0 -20 10l-61 71q-7 9 -7 18q0 10 11 22z" />
    <glyph glyph-name=".null" horiz-adv-x="0" 
 />
    <glyph glyph-name="nonmarkingreturn" horiz-adv-x="508" 
 />
    <glyph glyph-name="space" unicode=" " horiz-adv-x="508" 
 />
    <glyph glyph-name="space" unicode="&#xa0;" horiz-adv-x="508" 
 />
    <glyph glyph-name="exclam" unicode="!" horiz-adv-x="672" 
d="M309 1429h2l4 -5v-28h139l4 -4v-310q0 -36 -69 -721l-2 -1h-69l-4 4v28h-15q-7 0 -12 75q-87 775 -87 819v10q0 91 83 128q15 5 26 5zM318 268h125l5 -4v-260l-5 -4h-137q-63 0 -99 74q-7 23 -7 38q0 76 84 109l22 3h5l3 3v37z" />
    <glyph glyph-name="quotedbl" unicode="&#x22;" horiz-adv-x="672" 
d="M614 1425q44 -91 44 -96q-129 -42 -129 -169v-3h108l3 -4v-224l-3 -4h-225l-4 4v152q0 182 56 239q40 62 150 105zM230 1350l1 -2v-27q0 -8 -24 -17q-111 -65 -111 -157q0 -38 15 -47l8 -3h6l55 12h9q45 0 73 -55q6 -18 6 -33q0 -57 -66 -88q-19 -7 -36 -7h-9
q-71 0 -122 86q-18 36 -18 76v7q0 118 113 206q39 28 97 49h3z" />
    <glyph glyph-name="numbersign" unicode="#" horiz-adv-x="1336" 
d="M886 1435h208l4 -3q-60 -287 -73 -365h125l4 -4v-203l-4 -4h-169q-56 -265 -56 -277h225l4 -4v-203l-4 -4h-269l-76 -367l-1 -1h-166l-4 4v187q7 52 33 173l-1 4h-28l-4 4v87h-229l-92 -455l-8 -1h-73l-3 3q81 390 91 453h-166l-4 4v75l4 4h182q3 0 25 112l47 227l-1 4
h-253l-4 5v73l4 4h269q3 0 48 231l47 225l1 2h75l5 -5v-3l-90 -450h125v96l4 4h167q72 362 75 367zM423 542h211v33l4 4h69q5 0 56 277h-125l-4 4v25h-140q-3 0 -42 -198z" />
    <glyph glyph-name="dollar" unicode="$" 
d="M521 1438h42l4 -4v-77q59 -3 138 -39q35 -17 85 -68q51 -61 70 -145q5 -17 5 -28l-199 -26q-5 0 -7 19q-14 43 -34 65q-25 32 -58 43v-310q7 -4 66 -21q164 -56 219 -145q47 -81 47 -172v-20q0 -183 -153 -294q-61 -45 -179 -65v-147l-4 -4h-42l-4 4v38h-51l-4 4v106h-1
q-138 0 -300 68l-1 5v233l4 4h32q4 0 4 -5q0 -74 52 -153q48 -54 86 -65q70 -30 124 -30v494l-128 87q-48 35 -116 107q-57 73 -57 175q0 134 130 223q85 47 171 54v76l4 3h51v6zM296 1131v-8q0 -122 164 -226h2v392q-51 0 -110 -39q-56 -47 -56 -119zM567 641v-311
q39 2 89 46q45 50 45 104v19q0 94 -114 137z" />
    <glyph glyph-name="percent" unicode="%" horiz-adv-x="1610" 
d="M449 1459q98 0 190.5 -49t144.5 -139.5t52 -190.5q0 -99 -50.5 -188.5t-143 -140t-193.5 -50.5q-100 0 -192.5 50.5t-143.5 140t-51 188.5q0 100 52 190.5t144.5 139.5t190.5 49zM206 1066q13 -92 55.5 -173.5t106.5 -124.5q57 -40 114 -40q7 0 13 1q63 3 115 53t73 136
q13 54 13 111q0 32 -4 65q-12 93 -56 175.5t-107 124.5q-58 38 -115 38h-11q-61 -3 -113 -52t-73 -135q-15 -58 -15 -117q0 -31 4 -62zM297 -29l940 1461h84l-938 -1461h-86zM1161 738q97 0 190 -49.5t145 -140t52 -189.5q0 -100 -50.5 -189.5t-143 -139.5t-193.5 -50
t-193 50t-143 139.5t-51 189.5q0 99 52 189.5t144.5 140t190.5 49.5zM918 344q13 -92 55.5 -173.5t106.5 -124.5q59 -39 116 -39h11q63 3 115 53t73 136q13 54 13 111q0 32 -4 65q-12 93 -56 175.5t-107 124.5q-58 38 -115 38h-11q-61 -3 -113 -52t-73 -135
q-15 -58 -15 -117q0 -31 4 -62z" />
    <glyph glyph-name="ampersand" unicode="&#x26;" horiz-adv-x="1683" 
d="M899 1434q26 0 113 -30q47 -19 108 -78q78 -88 78 -195v-10q0 -161 -192 -288l-54 -38q0 -7 87 -119q72 -100 100 -133q24 38 49 124q7 29 12 29l235 -53v-2q-45 -170 -89 -241l-26 -41q26 -28 87 -73q53 -40 127 -85q-145 -187 -159 -201h-1q-91 37 -224 155
q-133 -109 -242 -130l-10 -2l-2 2v105h-3q-167 -127 -341 -127h-29q-198 0 -304 156q-39 66 -39 139v4q0 156 140 301q109 99 210 153l63 36q-80 173 -80 292v9q0 231 239 312q54 15 95 15h49v10zM685 1172v-8q0 -93 82 -281h2q49 18 126 74l1 2v51q0 6 37 41q32 41 32 78v3
q0 65 -69 107v103l-24 3h-25q-117 0 -159 -146zM804 817v-3q24 -50 89 -155h3v206l-67 -36zM389 407v-28q0 -115 100 -207q66 -47 137 -47h31q109 0 239 111v31q0 9 35 28l47 38v3l-77 94h-3v-135l-3 -3q-175 239 -252 401q-13 29 -17 29h-1q-168 -96 -219 -226
q-17 -49 -17 -89z" />
    <glyph glyph-name="quotesingle" unicode="'" horiz-adv-x="346" 
d="M197 1108h-30l-62 359q-4 23 -4 33q0 37 20.5 57t59.5 20t60.5 -19.5t21.5 -56.5q0 -8 -4 -34z" />
    <glyph glyph-name="parenleft" unicode="(" horiz-adv-x="758" 
d="M524 1438h2v-27q0 -6 -15 -12q-38 -20 -101 -83q-73 -84 -111 -205q-49 -168 -49 -367q0 -439 165 -608q32 -37 76 -71q35 -23 35 -28v-23q0 -2 -3 -2q-265 133 -372 423q-50 144 -50 290q0 329 222 572q80 78 130 104q32 21 71 37z" />
    <glyph glyph-name="parenright" unicode=")" horiz-adv-x="758" 
d="M396 1431q7 0 25 -31q217 -329 217 -675q0 -279 -145 -576q-36 -70 -89 -149h-141l-2 2q175 355 175 709q0 283 -102 540q-29 74 -74 178v1l1 1h135z" />
    <glyph glyph-name="asterisk" unicode="*" horiz-adv-x="1024" 
d="M599 1640l5 -7v-255h123l6 -6q0 -76 -37 -372h2q217 100 352 152q9 -17 75 -255q0 -6 -187 -42l-172 -30v-3l244 -279v-6l-211 -139h-6l-183 306h-6v-304l-7 -6q-48 0 -101 64q-15 35 -15 70v17q0 76 74 293q18 79 18 121h-2q-66 -31 -213 -194q-104 -112 -178 -112h-11
q-78 0 -115 84l-4 26v2q0 86 127 150q108 30 260 63q85 29 99 40q-82 43 -290 83q-196 45 -196 167v3q0 66 81 103l27 4h13q109 0 257 -182q105 -105 145 -121v2q0 92 -64 275q-27 86 -28 132q3 117 90 151z" />
    <glyph glyph-name="plus" unicode="+" 
d="M495 1250h27l4 -4v-104h109l4 -5v-332h337l4 -4v-227l-4 -4h-337v-333l-4 -4h-56l-86 1l-2 4v466h-465l-4 5v70l4 4h465v463z" />
    <glyph glyph-name="comma" unicode="," horiz-adv-x="557" 
d="M275 303h142l5 -5v-204q0 -237 -91 -313q-32 -36 -57 -51q-4 0 -4 8h-3q-47 -33 -146 -70h-7l-3 3v40q8 7 67 30q48 25 92 72v203h-1q-24 -8 -35 -8h-11q-79 0 -107 78l-5 37v4q0 85 96 123q20 7 35 7h28v41z" />
    <glyph glyph-name="hyphen" unicode="-" horiz-adv-x="670" 
d="M156 409q-40 0 -40 28v83q0 29 41 29h356q41 0 41 -29v-83q0 -28 -40 -28h-358z" />
    <glyph glyph-name="hyphen" unicode="&#xad;" horiz-adv-x="670" 
d="M156 409q-40 0 -40 28v83q0 29 41 29h356q41 0 41 -29v-83q0 -28 -40 -28h-358z" />
    <glyph glyph-name="period" unicode="." horiz-adv-x="557" 
d="M248 272h126l4 -4v-252l-4 -5h-118l-23 -1q-28 4 -57 26q-37 37 -37 79v5q0 76 82 105l21 3h2v40z" />
    <glyph glyph-name="slash" unicode="/" horiz-adv-x="569" 
d="M367 1387h181l3 -3l-261 -1080h-3v267q-4 0 -121 -352l-71 -207l-6 -1h-67l-3 3l268 797v264q55 241 75 311z" />
    <glyph glyph-name="zero" unicode="0" 
d="M516 1407q203 0 325 -177q112 -181 112 -532q-1 -545 -268 -670q-85 -36 -169 -36h-8l-12 -3h-19q-172 0 -304 214q-118 206 -118 458v46q0 343 180 561q128 133 257 133h7q3 0 3 4l1 2h13zM253 686v-54q0 -319 103 -502q57 -77 124 -77h22v156l4 4h9q55 0 99 60
q60 84 60 425q0 303 -43 390q-26 67 -72 86q-24 11 -44 11h-9l-4 5v142h-18q-72 0 -139 -103q-28 -52 -48 -121q-44 -210 -44 -422z" />
    <glyph glyph-name="one" unicode="1" 
d="M544 1432h128l5 -5v-1423l-5 -4l-327 1h-63l-5 5v31l5 5h7q130 0 151 45q17 16 17 119v849q0 173 -31 188q-20 20 -48 20q-38 0 -107 -30h-1q-4 0 -15 30v1q284 137 284 139v24z" />
    <glyph glyph-name="two" unicode="2" 
d="M438 1435h41l13 -2l15 2h27q256 0 386 -197q52 -93 52 -194v-14q0 -252 -280 -501q-143 -132 -197 -187l-1 2v82h-3q-161 -173 -256 -269v-1h259v93l4 4h470l4 -4v-248l-4 -5h-467l-12 3h-475l-5 5v28q0 8 39 41q261 245 355 358q85 97 91 114v142q0 7 28 31
q132 135 134 160q39 66 39 134v13q0 121 -98 166q-33 15 -73 15h-26l-4 5v48q-43 16 -83 16h-29q-142 0 -245 -135q-32 -53 -48 -101l-8 -2h-27l-4 3q19 107 37 149q69 160 209 217q71 29 142 29z" />
    <glyph glyph-name="three" unicode="3" 
d="M492 1435q95 0 203 -56q186 -123 186 -304v-1q0 -180 -197 -294v-1q56 -15 90 -33q171 -102 171 -300q0 -242 -232 -387q-112 -57 -223 -57l-2 4v8h-2q-76 -15 -140 -15h-38q-166 0 -210 74q-10 18 -10 34v3q0 48 62 70l16 2h10q47 0 154 -61q64 -32 119 -32h39v133
q0 4 38 10q71 24 112 93q29 56 29 131v3q0 154 -122 208q-27 10 -53 10q-48 30 -170 30l-3 4v24q0 4 43 10q68 21 117 49l9 7v84q0 3 44 22q78 54 78 146v6q0 105 -91 143q-31 7 -31 12v63q-34 12 -68 12h-27q-140 0 -250 -167l-33 15v2q124 290 360 290h18q0 6 4 6z" />
    <glyph glyph-name="four" unicode="4" 
d="M610 1433h219l5 -4v-901h174l4 -4v-233l-4 -4h-174v-284l-5 -4h-256l-4 4v284h-68l-4 4v80h-473l-4 4v122q0 9 33 54q435 619 444 635v84q0 8 95 145q10 18 18 18zM480 1007l-349 -494v-3h354q0 9 4 9h64v457h-4q-35 -56 -63 -92h-1v123h-5z" />
    <glyph glyph-name="five" unicode="5" 
d="M372 1432h500l4 -4v-249l-4 -4h-409l-4 4v77h-92q-91 -179 -91 -187q37 0 183 -45l1 -8v-39l30 2h27q191 0 332 -175q90 -127 90 -301q0 -262 -219 -428q-121 -75 -252 -75h-5l-4 4v27h-3v2q-83 -26 -150 -26h-30q-179 0 -222 113q-4 12 -4 25q0 45 57 69l28 5
q50 0 129 -62q76 -43 132 -43h25l38 3v99l4 4h2q96 0 160 109q31 66 31 159v24q0 178 -130 235q-25 10 -66 15l-1 1v42q-27 21 -116 50q-131 31 -244 31l-1 2v1l268 542z" />
    <glyph glyph-name="six" unicode="6" 
d="M496 1428h44q204 0 320 -171q52 -97 52 -128l12 -48q0 -5 -196 -24l-63 -7q-3 4 -7 37q-19 65 -58 92q-39 25 -76 25h-28v-9q0 -6 -41 -51q-60 -80 -88 -139q-40 -79 -76 -210l1 -2q112 71 198 88l2 2v38q0 10 23 10h41q160 0 290 -145q104 -127 104 -313
q0 -292 -235 -425q-98 -48 -200 -48h-36q-218 0 -363 282q-56 133 -56 282q0 322 228 584q127 130 182 159q22 13 22 22v94zM254 495q0 -171 91 -331q52 -77 123 -99l24 -5v160l3 3h31q83 0 136 97q24 59 24 144v13q0 198 -127 247q-25 9 -48 9h-15l-4 4v63h-19
q-74 0 -202 -86q-17 -140 -17 -219z" />
    <glyph glyph-name="seven" unicode="7" 
d="M476 1430q4 0 4 -7h459l4 -5v-189q0 -6 -42 -49q-123 -147 -217 -325q-54 -107 -99 -222q-105 -306 -105 -438v-120q0 -14 -22 -74l-2 -1h-111l-3 3q137 409 137 418v516q0 19 39 75q41 65 108 153v3h-143l-4 5v88h-35q-206 0 -235 -29q-80 -40 -141 -145h-1
q-27 8 -27 12q128 323 135 331h301z" />
    <glyph glyph-name="eight" unicode="8" 
d="M473 1435h5q223 0 340 -157q61 -89 61 -205q0 -190 -188 -289q71 -28 140 -96q92 -106 92 -239v-22q0 -233 -197 -364q-58 -38 -162 -57l-60 -6q-185 0 -267 57q-107 64 -154 195q-13 47 -13 87q0 187 269 379v1q-78 66 -152 143q-102 112 -102 240q0 175 170 282
q92 47 190 47h22zM240 1217q0 -142 179 -273l66 -55h3v26l4 5h2q106 0 152 109q7 31 7 52v29q0 103 -104 148q-26 9 -52 9h-5l-4 5v152h-23q-125 0 -201 -114q-24 -44 -24 -93zM234 375v-35q0 -169 144 -256q56 -24 104 -24h6v162l4 5h11q92 0 155 99q29 57 29 145
q0 160 -139 216q-29 8 -51 8h-8v-54l-3 -3q-76 66 -82 66q-70 -58 -107 -118q-63 -107 -63 -211z" />
    <glyph glyph-name="nine" unicode="9" 
d="M468 1435q139 0 262 -89q217 -162 217 -595v-53q0 -499 -287 -648q-86 -40 -115 -40q-2 -2 -56 -10l-3 4v98h-4q-163 -101 -329 -101h-71l-4 5v31l4 4h9q176 0 330 127q49 47 65 66l3 -9q32 0 88 52q44 42 67 143q25 135 25 190h-3q-76 -77 -133 -92q-7 -5 -46 -13l-1 2
v32q-46 -9 -72 -9h-22q-153 0 -268 150q-74 109 -74 261q0 230 169 395q113 99 249 99zM233 1043q0 -261 134 -379q53 -39 106 -39h13v64q0 11 28 14q72 26 106 97q25 54 25 137q0 203 -144 265q-15 0 -15 12v151l-7 2h-31q-102 0 -177 -124q-38 -76 -38 -200z" />
    <glyph glyph-name="colon" unicode=":" horiz-adv-x="557" 
d="M247 990h117l4 -4v-242l-4 -4h-117l-4 4v8h-2q-58 0 -92 69q-5 17 -7 36q0 69 77 102l22 2h2v25zM247 295h117l4 -4v-242l-4 -4h-96q-94 0 -119 66q-8 16 -8 43q0 64 73 97l26 4h3v36z" />
    <glyph glyph-name="semicolon" unicode=";" horiz-adv-x="557" 
d="M281 1167h117l4 -4v-241l-4 -5h-117q-3 0 -4 7h-1q-63 0 -94 73l-5 26v8q0 69 77 99l23 2v31zM281 475h117l4 -4v-186q0 -194 -84 -265q-38 -44 -141 -83l-24 -7l-3 3v31q0 9 23 14q101 48 104 71v175l-22 -2h-9q-75 0 -95 78l-1 22v7q0 63 77 100q22 6 35 6h15v36z" />
    <glyph glyph-name="semicolon" unicode="&#x37e;" horiz-adv-x="557" 
d="M281 1167h117l4 -4v-241l-4 -5h-117q-3 0 -4 7h-1q-63 0 -94 73l-5 26v8q0 69 77 99l23 2v31zM281 475h117l4 -4v-186q0 -194 -84 -265q-38 -44 -141 -83l-24 -7l-3 3v31q0 9 23 14q101 48 104 71v175l-22 -2h-9q-75 0 -95 78l-1 22v7q0 63 77 100q22 6 35 6h15v36z" />
    <glyph glyph-name="less" unicode="&#x3c;" 
d="M976 1196v-68q0 -9 -25 -16l-770 -336v-1l794 -349l1 -5v-69q0 -3 -4 -3l-924 405l-1 5v31q0 9 21 14l850 368q51 24 58 24z" />
    <glyph glyph-name="equal" unicode="=" 
d="M533 1077h453l4 -4v-226l-4 -4h-453l-5 4v226zM28 833h498l4 -4v-71l-4 -4h-498l-4 4v71zM533 679h453l4 -4v-226l-4 -4h-958l-4 4v71l4 4h500v151z" />
    <glyph glyph-name="greater" unicode="&#x3e;" 
d="M55 1224q9 -1 230 -98l688 -298l1 -2v-214q-10 -10 -144 -66q-755 -330 -774 -336l-1 1v251q0 9 30 17l606 240v1l-635 249l-1 6v249z" />
    <glyph glyph-name="question" unicode="?" horiz-adv-x="748" 
d="M345 1367l4 -4v-18h22q210 0 347 -133q105 -107 105 -241q0 -142 -152 -272q-35 -34 -146 -129q-63 -55 -63 -143l-1 -36v-21l-4 -4h-108q0 -7 -4 -7h-18l-4 3l1 4q0 57 24 175v161q0 10 62 61q77 59 138 122q30 43 30 94q0 108 -120 160q-41 13 -80 13h-26l-4 5v153
l-3 2h-39q-110 0 -157 -91q-4 -12 -5 -30q0 -35 48 -125l10 -37q0 -52 -51 -76q-11 -4 -21 -4h-8q-53 0 -90 75q-11 34 -11 64v3l-1 5l1 6v5q0 112 124 204q89 56 200 56zM352 281h105l4 -4v-243l-4 -4h-102q-46 6 -66 21q-45 35 -45 85v3q0 72 79 100l21 3h4v35z" />
    <glyph glyph-name="at" unicode="@" horiz-adv-x="2019" 
d="M1022 1598l1 -1v-42h66q250 0 437 -144q54 -47 80 -82q124 -164 124 -368q0 -248 -192 -433q-137 -123 -307 -123h-23q-96 0 -125 72l-4 13h-2q-26 -24 -53 -41l-2 2v132q0 5 33 38q38 50 66 133q29 89 29 163v10q0 126 -94 167q-34 8 -34 10v57h-4q-46 -29 -103 -107
q-47 -68 -79 -137q-70 -155 -70 -241q0 -80 70 -112l16 -2h16q64 0 154 88l1 -1v-46q0 -6 -41 -44q-72 -66 -128 -84q-37 -14 -64 -14h-10q-72 0 -124 90q-21 50 -21 101q0 147 121 338q118 166 266 223v23l2 4q75 -12 106 -37q37 -28 61 -63h3q14 72 20 83h199q2 0 2 -4
q-126 -593 -126 -610v-18q6 -27 26 -27h9q48 0 142 90q124 143 124 315q0 214 -175 347q-134 96 -326 96h-9l-11 1l-12 -1h-32l-3 3v139h-3v1q-28 0 -124 -25q-78 -26 -139 -61q-202 -114 -310 -379q-58 -152 -58 -312q0 -289 190 -484q116 -103 252 -141q98 -27 181 -27h11
v85l2 3h75q310 0 481 175q24 30 30 30h157l2 -2q-91 -191 -330 -290q-163 -57 -331 -57h-70q-13 0 -18 5h-12q-216 0 -417 136q-42 29 -110 103q-171 208 -171 486v2q0 302 197 540q81 84 126 114q81 54 164 90q59 24 154 44z" />
    <glyph glyph-name="A" unicode="A" horiz-adv-x="1540" 
d="M736 1430h148q12 0 20 -32q2 -2 558 -1397l-1 -1h-309q-7 5 -71 178l-58 147h-287l-4 4v137h-262q-5 0 -90 -206q-41 -86 -41 -134v-4q0 -51 77 -72q51 -10 82 -10l3 -5v-31l-5 -4h-432l-4 4v31q0 4 60 16q54 17 80 58q50 65 141 291l391 915v111zM736 1088
q-203 -468 -234 -544h230v19l4 4h194q-1 11 -193 521h-1z" />
    <glyph glyph-name="B" unicode="B" horiz-adv-x="1219" 
d="M4 1435h547q424 0 476 -27q110 -30 188 -127q72 -99 72 -208q0 -175 -158 -289q-37 -19 -40 -23q166 -57 221 -168q45 -78 45 -158v-40q0 -123 -98 -254q-84 -89 -161 -108q-75 -29 -191 -29q-64 -4 -222 -4h-679l-4 4v32l4 4h52q103 0 136 74q15 45 15 130v946
q0 144 -42 171q-41 34 -106 34h-55l-4 5v31zM412 790q70 -14 199 -14l74 1l1 2v80l3 4q177 0 213 18q101 43 101 146v9q0 121 -125 150q-27 7 -189 7l-3 5v161q-51 5 -86 5q-109 0 -188 -24v-550zM412 692v-588q116 -28 258 -28h6l10 1v161l5 4h50q197 0 228 28
q87 48 87 159q0 123 -110 170q-54 25 -257 25l-3 4v69q-37 4 -90 4q-129 0 -184 -9z" />
    <glyph glyph-name="C" unicode="C" horiz-adv-x="1399" 
d="M739 1432h25q226 0 392 -147q98 -94 144 -256l-273 -69q-5 0 -18 48q-19 53 -76 113q-87 71 -185 71h-22l-5 4v159q-83 -8 -187 -71q-222 -165 -222 -592q0 -423 292 -558q85 -35 116 -35h1v137l5 4h13q127 0 217 113q33 49 50 94l27 87h1l269 -84v-2q-56 -215 -199 -332
q-154 -116 -359 -116h-15q-272 0 -459 190q-191 208 -191 503v6q0 313 217 542q112 100 197 132q38 21 134 44q83 15 111 15z" />
    <glyph glyph-name="D" unicode="D" horiz-adv-x="1518" 
d="M84 1435h448q231 0 282 -6l6 3q88 0 207 -35q181 -70 280 -258q88 -167 88 -437q0 -399 -244 -596q-152 -106 -406 -106h-661l-4 4v30l4 4h11q115 0 137 29q25 11 40 51q13 40 13 133v931q0 136 -31 169q-34 44 -146 44h-24l-4 5v31zM489 1323v-1218q133 -28 209 -28h37
q43 0 81 7v161q0 6 27 6q88 15 149 67q103 103 103 399q0 293 -108 388q-50 49 -105 64l-65 15l-1 1v160q-49 7 -90 7h-37q-82 0 -200 -29z" />
    <glyph glyph-name="E" unicode="E" horiz-adv-x="1151" 
d="M1175 1432l3 -4v-236l-5 -4h-488l-5 4v159h-272v-563h272v80l5 5h435l4 -5v-235l-4 -4h-435l-5 4v76h-272v-465q0 -132 15 -132q12 -34 111 -34h146v162l5 4h515l4 -4v-236l-4 -4h-1196l-4 4v30l4 4h15q101 0 141 33q44 17 44 149l2 105v790q0 220 -28 233
q-27 43 -157 43h-17l-4 4v31q0 4 6 5z" />
    <glyph glyph-name="F" unicode="F" horiz-adv-x="1079" 
d="M4 1405h661l12 -3h485l4 -4v-231l-4 -4h-486l-5 4v160h-270v-551h270v51l5 5h392l5 -5v-230l-5 -5h-392l-5 5v90l-32 2h-238v-461q0 -112 22 -138q41 -39 89 -48q22 -4 73 -4h15l4 -4v-30l-4 -4h-596l-4 4v30l4 4h8q111 0 138 26q28 18 40 53q11 41 11 185v792
q0 204 -20 215q-19 32 -86 51q-14 6 -79 6h-12l-4 4v31z" />
    <glyph glyph-name="G" unicode="G" horiz-adv-x="1479" 
d="M737 1435q272 0 390 -66q58 -24 129 -93q81 -91 107 -171q21 -65 21 -78l-274 -53q-5 0 -16 40q-47 102 -143 149q-68 30 -139 30h-59l-3 3v162h-1q-66 0 -176 -57q-160 -93 -232 -333q-30 -98 -30 -228v-2q0 -302 173 -510q83 -84 125 -98q27 -20 108 -47l32 -6h1v160
l3 3h56q141 0 304 111l6 6v175h-316l-4 4v228l4 4h596l5 -4v-544q-6 -17 -64 -58q-98 -66 -239 -116q-153 -47 -272 -47h-47q-165 0 -348 86q-222 123 -316 366q-42 118 -42 245q0 279 205 518q102 101 162 132q62 36 131 59q121 30 163 30z" />
    <glyph glyph-name="H" unicode="H" horiz-adv-x="1579" 
d="M1008 1409h277l4 -5v-1398l-4 -5h-277l-4 5v610h-270l-4 5v56h-328v-435q0 -127 22 -150q20 -31 92 -50q14 -4 70 -4h14l5 -4v-30l-5 -4h-596l-4 4v30l4 4h9q117 0 143 30q24 15 35 51q10 47 10 105v963q0 113 -29 137q-44 44 -147 44h-21l-4 4v31l4 4h596l5 -4v-31
l-5 -4h-13q-96 0 -135 -28q-29 -16 -41 -55q-9 -44 -9 -121v-408h328v95l4 4h270v549z" />
    <glyph glyph-name="I" unicode="I" horiz-adv-x="657" 
d="M114 1408h295q4 0 4 -6h132l4 -4v-1394l-4 -4h-431l-4 4v29l4 5h13q93 0 128 24q55 24 55 116q3 21 3 112v832q0 187 -33 203q-31 44 -144 44h-22l-4 4v31z" />
    <glyph glyph-name="J" unicode="J" horiz-adv-x="657" 
d="M623 1409l3 -4v-863q0 -263 -75 -359q-14 -27 -70 -77l-1 1v15h-2q-106 -122 -241 -122h-23q-130 0 -185 109q-9 25 -9 46v2q0 80 75 102l22 3h13q67 0 116 -132q26 -56 55 -56h13q34 0 60 65q8 36 8 103v887q0 177 -23 187q-13 22 -58 39q-24 13 -98 13h-15l-4 5v30l4 5
h84z" />
    <glyph glyph-name="K" unicode="K" horiz-adv-x="1382" 
d="M4 1413h591l4 -5v-30l-4 -4h-13q-102 0 -141 -35q-23 -14 -34 -56q-7 -40 -7 -124v-419h3q217 198 273 254q361 397 379 412h374l3 -3q-521 -537 -526 -546v-2l553 -854v-1h-358q-11 0 -32 45l-360 612h-1q-38 -31 -38 -42v-167l-3 -3l-264 261h-3v-440q0 -145 23 -165
q24 -31 90 -48q17 -4 72 -4h10l4 -4v-29l-4 -4h-591l-4 4v29l4 4h5q112 0 138 25q31 19 42 53q12 46 12 152v861q0 148 -18 175q-20 35 -93 54q-21 5 -74 5h-12l-4 4v30zM599 789q0 -4 61 -62h3v122h-3z" />
    <glyph glyph-name="L" unicode="L" horiz-adv-x="1128" 
d="M4 1406h628l4 -5v-31l-2 -5q-154 0 -195 -47q-36 -27 -36 -135l-2 -79v-838q0 -133 31 -152q20 -23 124 -23l112 -2v148l5 4h518l4 -4v-233l-4 -4h-1187l-4 4v31l4 4h13q112 0 137 30q48 25 48 163v901q0 179 -39 196q-31 36 -137 36h-22l-4 5v31z" />
    <glyph glyph-name="M" unicode="M" horiz-adv-x="1798" 
d="M1237 1409h414l5 -4v-1396l-5 -4h-255l-4 3l-2 343v744q-4 0 -39 -148l-239 -942h-162q-11 0 -19 28l-526 1141h-1v-927q0 -140 33 -168q35 -36 138 -36h23l4 -5v-29l-4 -4h-480l-4 4v29l4 5h8q117 0 140 30q33 27 33 48q12 34 12 106v955q0 129 -64 160q-41 24 -111 24
h-18l-4 4v32l4 4h386q10 0 21 -33l451 -970h2v44q249 953 253 961z" />
    <glyph glyph-name="N" unicode="N" horiz-adv-x="1554" 
d="M74 1407h370q10 0 46 -50q350 -427 373 -458h4v56h2q130 -208 294 -480h4v928l4 4h256l5 -4v-1397l-5 -5h-275q-10 0 -29 40q-255 408 -256 417v123q0 7 -76 96l-350 427h-2v-861q0 -157 43 -176q28 -29 144 -29h7l4 -4v-30l-4 -4h-481l-4 4v30l4 4h6q115 0 139 28
q22 14 35 42q14 37 14 163v946q0 12 -81 91q-81 58 -173 58h-18l-4 4v33z" />
    <glyph glyph-name="O" unicode="O" horiz-adv-x="1614" 
d="M803 1408l10 -2h8q283 0 469 -196q172 -191 172 -499v-29q0 -379 -269 -573q-170 -109 -378 -109q-355 0 -554 288q-118 177 -118 425q0 381 320 594q158 96 337 96zM371 743v-38q0 -369 192 -551q98 -81 237 -81v160l5 4h14q165 0 277 144q81 116 81 307v26
q0 335 -227 430q-61 27 -138 27h-7l-5 4v156h-1q-315 0 -406 -373q-22 -109 -22 -215z" />
    <glyph glyph-name="P" unicode="P" horiz-adv-x="1120" 
d="M4 1407h410q471 -5 493 -20q104 -22 168 -81q140 -121 140 -335q0 -286 -246 -401q-92 -42 -321 -42h-43l-5 4v97q-61 0 -195 29l-4 -1v-378q0 -174 31 -198q35 -42 139 -42h28l4 -4v-31l-4 -4h-595l-4 4v31l4 4h13q113 0 139 32q45 22 45 162v913q0 161 -36 185
q-35 36 -138 36h-23l-4 4v32zM401 1302v-582q0 -4 95 -17q35 -4 64 -4h37l3 3v60l5 5h13q190 0 240 55q63 55 63 146q0 132 -130 180q-41 16 -179 16h-7l-5 5v147q-27 5 -47 5h-28q-49 0 -124 -19z" />
    <glyph glyph-name="Q" unicode="Q" horiz-adv-x="1614" 
d="M801 1411h16q237 0 404 -151q181 -175 181 -491v-9q0 -286 -152 -458v-3q64 -48 151 -87q48 -17 48 -20q-83 -163 -94 -179q-63 19 -129 58l-147 99h-3q-131 -52 -255 -52h-21v-115l-3 -3q-60 42 -136 110q-13 21 -64 38q-94 40 -181 107q-216 189 -216 506
q0 342 278 540q150 99 318 99h2v8zM408 761q0 -350 177 -509q91 -73 200 -73h13v146l4 4q50 0 86 17q-15 14 -82 48q-8 0 -8 9v145q0 13 11 21q103 -37 202 -103l32 -24h1q96 114 96 301v44q0 288 -205 382q-61 25 -123 25h-10l-4 4v131h-14q-161 0 -267 -140
q-109 -149 -109 -428z" />
    <glyph glyph-name="R" unicode="R" horiz-adv-x="1283" 
d="M4 1407h386l198 -2l39 2q330 0 418 -72q55 -33 104 -109q57 -98 57 -213q0 -247 -217 -350q-38 -20 -139 -40l-9 -2v-1q64 -39 128 -98q76 -79 151 -201l198 -317l-1 -1h-331q-9 0 -27 33q-214 322 -312 454q-19 24 -52 54l-1 6v44l-47 62l-89 -1l-56 1v-394
q0 -149 29 -179q34 -45 138 -45h26l4 -5v-29l-4 -4h-591l-4 4v29l4 5h13q115 0 140 32q36 31 36 61q9 33 9 97v947q0 136 -43 162q-32 30 -137 30h-18l-4 5v30zM402 1306v-580l2 -3h64q74 0 126 12v74l4 4h7q190 0 231 29q78 50 78 152q0 122 -111 161q-24 12 -144 12h-61
l-4 4v154h-44q-49 0 -148 -19z" />
    <glyph glyph-name="S" unicode="S" horiz-adv-x="1085" 
d="M451 1408h7q375 0 487 -226q48 -91 48 -188l-4 -3l-268 -9l-16 58q-30 80 -87 110q-60 28 -131 28l-3 4v145h-33q-115 0 -191 -104q-31 -46 -31 -99v-3q0 -107 142 -194q59 -43 113 -69v21q0 3 5 3q221 -49 333 -104q210 -113 210 -349v-15q0 -162 -130 -291
q-141 -123 -394 -123h-16l-95 17q-185 60 -210 60h-17q-36 0 -48 -67q0 -9 -9 -9h-26l-4 5v453l4 5h26q11 0 11 -21q24 -114 52 -172q52 -111 201 -168q62 -22 103 -22h4v148l5 4h21q178 0 238 134q9 23 9 53q0 105 -144 145l-127 36q0 10 -36 26q-147 81 -253 164
q-127 114 -127 264q0 175 165 291q101 62 216 62z" />
    <glyph glyph-name="T" unicode="T" horiz-adv-x="1350" 
d="M677 1409h554l4 -4v-231l-4 -4h-412v-1166l-4 -4h-437l-4 4v29l4 5h8q117 0 140 30q18 8 34 44q13 40 13 143v1061h-87q-221 0 -237 -22q-61 -27 -98 -108q-23 -67 -23 -109l-5 -3h-32l-4 4l16 325l4 3h558z" />
    <glyph glyph-name="U" unicode="U" horiz-adv-x="1501" 
d="M97 1409h588l4 -4v-31l-4 -4h-13q-109 0 -135 -29q-48 -27 -48 -176v-595q0 -223 60 -338q35 -59 104 -100q80 -43 173 -43h10v148l4 4h25q168 0 224 132q20 55 20 226v801l4 5h272l4 -5v-744q0 -342 -60 -430q-53 -118 -214 -185q-88 -41 -324 -41q-128 0 -255 52
q-140 70 -205 222q-38 92 -38 336v545q0 155 -46 187q-29 28 -137 28h-13l-4 4v31z" />
    <glyph glyph-name="V" unicode="V" horiz-adv-x="1456" 
d="M34 1413h557l4 -4v-32q0 -5 -48 -9q-104 -16 -104 -84q0 -67 88 -258q237 -543 237 -550v-97q4 0 134 400l209 626l6 1h290q3 0 3 -4q-494 -1386 -501 -1401l-6 -1h-129q-12 0 -25 41l-537 1232q-35 64 -101 85q-17 9 -80 16l-1 2v33z" />
    <glyph glyph-name="W" unicode="W" horiz-adv-x="2030" 
d="M1201 1408q4 -4 108 -426l140 -551h1l215 975l8 2h275l3 -3q-329 -1358 -342 -1404l-6 -1h-288q-11 0 -13 23l-270 1010h-1v-146q0 -12 -77 -223l-233 -658l-6 -2h-29q-9 9 -51 136q-9 19 -336 939q-73 211 -93 234q-40 53 -120 53h-12l-4 4v32l4 4h499l5 -4v-30
q0 -5 -6 -5q-94 0 -115 -40q-10 -10 -13 -32v-14q0 -48 140 -431l171 -489h2q3 1 90 256l136 391q-71 210 -97 259q-53 99 -145 99h-18l-4 4v32l4 4h49z" />
    <glyph glyph-name="X" unicode="X" horiz-adv-x="1350" 
d="M33 1410h643l4 -4v-32l-4 -4q-109 0 -136 -58l-3 -15v-10q0 -46 110 -200l99 -145h1v50q2 9 83 130l191 285h324l3 -2l-440 -672v-2q482 -726 482 -730v-1h-335q-9 0 -28 35q-262 397 -280 429v119q-19 31 -22 31q-33 -38 -323 -412q-35 -45 -35 -76v-19q0 -36 58 -59
q37 -9 68 -9h5l4 -4v-31l-4 -4h-494l-4 4v31q0 4 49 10q45 13 100 42q52 29 122 97q73 79 304 379l100 128q-253 383 -330 489q-109 143 -207 172q-56 18 -105 18l-4 4v32z" />
    <glyph glyph-name="Y" unicode="Y" horiz-adv-x="1233" 
d="M1391 1407l3 -3l-514 -813v-585l-3 -5l-334 -1h-100l-4 4v29l4 5h8q117 0 140 30q45 22 45 149v355q0 7 -198 306q-210 329 -279 415q-90 68 -142 68h-13l-4 4v32l4 4h592l4 -4v-31q0 -4 -6 -4q-124 0 -151 -61l-4 -26v-4q0 -50 138 -249q145 -229 166 -257h2v80
q12 28 206 356q110 195 120 206h320z" />
    <glyph glyph-name="Z" unicode="Z" horiz-adv-x="1124" 
d="M159 1410h990l4 -4v-212q0 -9 -63 -84l-480 -592h-4v41h-1q-6 -6 -331 -471v-3h332v150l4 5h569l4 -5v-231l-4 -4h-1175l-4 4v29q0 8 95 139l511 730v51q0 9 75 96l95 120v1h-166l-4 5v150h-82q-209 0 -237 -28q-50 -23 -76 -75q-20 -39 -41 -141q-2 -25 -7 -25h-33
q-3 0 -3 5l27 346z" />
    <glyph glyph-name="bracketleft" unicode="[" horiz-adv-x="758" 
 />
    <glyph glyph-name="backslash" unicode="\" horiz-adv-x="569" 
 />
    <glyph glyph-name="bracketright" unicode="]" horiz-adv-x="758" 
 />
    <glyph glyph-name="asciicircum" unicode="^" 
d="M523 1346h84q8 0 15 -22l278 -607l-1 -1h-216q-10 0 -19 32l-143 350l-2 3v98h-1q-4 -2 -275 -457q-13 -27 -21 -27h-71l-1 1h-1q355 594 361 599h9v27z" />
    <glyph glyph-name="underscore" unicode="_" horiz-adv-x="1024" 
d="M484 -113h507l4 -4v-153l-4 -4h-504l-11 3h-486l-4 4v71l4 4h490v75z" />
    <glyph glyph-name="grave" unicode="`" horiz-adv-x="1024" 
d="M673 1079h-69l-330 202q-31 20 -46.5 40t-15.5 42q0 31 20.5 51t53.5 20q20 0 40.5 -12t55.5 -47z" />
    <glyph glyph-name="a" unicode="a" horiz-adv-x="922" 
d="M421 1024h21q295 0 366 -170q25 -82 25 -189l-3 -359q0 -178 56 -280l1 -5l-1 -1h-249q-10 0 -13 19l-26 84h-4q-100 -87 -169 -104l-6 -2l-1 2v35h-3q-73 -54 -152 -54h-20q-96 0 -163 89q-40 60 -40 134v17q0 171 285 289l93 42v37q0 12 23 12q103 25 134 41v36
q0 88 -66 113q-36 14 -88 14l-3 4v52l-33 3h-23q-85 0 -120 -83l-3 -17l1 -70v-5q0 -59 -58 -81l-20 -3h-9q-55 0 -76 64l-3 26v9q0 97 126 178q86 43 188 43h30v78zM206 282v-7q0 -111 104 -156l23 -3h19q31 0 66 18v49q0 3 46 19q77 40 97 97q14 30 14 112v78h-1
q-88 -25 -155 -37l-1 2v48h-2q-210 -84 -210 -220z" />
    <glyph glyph-name="b" unicode="b" horiz-adv-x="995" 
d="M302 1402l5 -4v-626h1q98 129 202 161v49q0 8 11 8q31 9 65 9h23q192 0 317 -176q76 -124 76 -315q0 -365 -266 -485q-69 -23 -124 -23h-20q-82 5 -82 17l-32 -1h-26q-137 0 -304 109l-1 7v922q0 182 -19 196q-16 24 -43 24h-9q-19 0 -62 -13h-2l-12 33q260 108 271 108
h31zM307 704v-523q98 -95 191 -95h12v113l3 3h38q92 0 154 105q36 67 36 190v1q0 221 -113 284q-45 23 -84 23h-52q-88 0 -185 -101z" />
    <glyph glyph-name="c" unicode="c" horiz-adv-x="905" 
d="M412 1024h36q300 0 403 -255q17 -48 17 -54l-253 -47l-16 53q-48 97 -147 97h-41l-3 3v61h-1q-52 0 -114 -52q-93 -101 -93 -261v-21q0 -187 120 -326q58 -48 85 -52h3v40l3 2h44q89 0 140 85q33 78 33 99h1l252 -43v-3q0 -26 -45 -131q-65 -131 -216 -191
q-91 -28 -174 -28h-5q-189 0 -300 146q-101 124 -101 327v4q0 284 231 423q84 43 120 43l9 1l7 2l1 1v72z" />
    <glyph glyph-name="d" unicode="d" horiz-adv-x="1040" 
d="M726 1409h258l4 -4v-1372l-4 -4h-239l-4 4v136h-4q-40 -58 -112 -107q-55 -32 -123 -49q-33 -13 -76 -13h-22q-158 0 -282 163q-82 120 -82 284q0 225 168 409q118 112 264 112h26v74l3 3q101 -21 168 -80q49 -44 49 -49h4v489zM225 530v-11q0 -295 201 -392
q37 -16 69 -16h3v101l4 5h15q94 0 163 105q44 74 44 204q0 230 -116 293q-44 28 -91 28h-15l-4 4v52l-7 2h-30q-105 0 -187 -138q-49 -95 -49 -237z" />
    <glyph glyph-name="e" unicode="e" horiz-adv-x="909" 
d="M403 1023h18q228 0 361 -182q90 -141 90 -372v-25l-4 -5h-465l-4 5v139h-229v-2q0 -299 220 -402l7 -1h2v18l1 2v1l17 -1h31q108 0 150 133q2 5 4 5l254 -44v-2q-57 -162 -189 -235q-103 -52 -220 -52h-40l-10 -3q-76 0 -173 57q-194 132 -194 406q0 339 261 457
q48 18 108 25v74zM170 641h229l4 -4v-38h210v4q0 158 -130 212q-25 9 -46 9h-34l-4 4v48h-24q-80 0 -154 -88q-48 -75 -51 -147z" />
    <glyph glyph-name="f" unicode="f" horiz-adv-x="559" 
d="M423 1408h33q93 0 204 -33v-3q-30 -163 -36 -181q-64 13 -106 13h-27q-63 0 -84 -48q-12 -24 -12 -108v-42h196l4 -4v-202l-4 -4h-196v-792l-4 -4l-320 1h-61l-4 5v27l4 5h10q90 0 118 33q14 6 30 45q11 27 11 176v556h-175l-4 5v65l4 4h175v72q0 169 82 283v89
q0 20 117 39z" />
    <glyph glyph-name="g" unicode="g" horiz-adv-x="899" 
d="M414 1022q69 -9 136 -54q39 -26 89 -86h1v121l4 4h222l4 -4v-797q0 -239 -48 -320q-82 -170 -370 -174h-41v-94l-4 -4h-52q-186 0 -317 104q-38 37 -38 71q0 72 165 232l2 6q-86 49 -86 101q0 77 145 196v3q-89 43 -131 130q-26 58 -26 120v9q0 145 139 245q85 54 183 54
h19v134q0 3 4 3zM230 631v-25q0 -162 91 -240q39 -30 82 -30h4l4 -4v-39l-4 -4h-17q-44 0 -116 18q-68 -56 -68 -104v-4q0 -37 75 -48q76 -6 129 -6v135l4 4h14q109 0 174 121q27 63 27 150v7q0 200 -122 260q-38 17 -71 17h-58q-76 0 -124 -86q-24 -48 -24 -122zM623 231
q-68 -85 -125 -110q-52 -26 -87 -30v-86l-2 -4q-93 6 -188 16q-31 -29 -57 -68q-31 -51 -31 -88v-5q0 -79 178 -118q39 -8 99 -11v168l4 4h28q147 0 175 98q9 10 10 234h-4z" />
    <glyph glyph-name="h" unicode="h" horiz-adv-x="1104" 
d="M382 1413l4 -4v-656h5q103 112 143 134l14 12v88q0 9 87 21l27 2h23q142 0 246 -100q48 -62 58 -111q20 -60 20 -194v-601l-4 -4h-255l-4 4v551q0 152 -24 189q-48 65 -122 65h-34q-58 0 -167 -105l-13 -16v-473q0 -113 16 -130q30 -40 111 -40h15l4 -5v-28l-4 -5h-441
l-4 5v28l4 5h13q92 0 113 62q9 33 9 134v731q0 273 -16 273q-12 35 -46 35h-12q-18 0 -62 -13h-2q-3 0 -14 35q269 111 279 111h33z" />
    <glyph glyph-name="i" unicode="i" horiz-adv-x="514" 
d="M287 1464l5 -4v-35h135l4 -4v-245l-4 -4h-132l-5 4v80h-3q-60 0 -94 70l-6 35q0 66 72 99zM295 1034h132l4 -5v-1024l-4 -5h-360l-5 5v25q0 9 9 9h17q86 0 106 57q12 34 12 93v440q0 138 -16 172q-15 32 -57 32q-23 0 -68 -14h-3q-12 30 -12 36v2q234 93 240 99v73z" />
    <glyph glyph-name="j" unicode="j" horiz-adv-x="510" 
d="M374 1404l4 -3v-25h113l4 -3v-200l-4 -3h-111l-4 3v59h-2q-47 0 -76 59q-3 15 -3 27v3q0 56 63 81zM380 1057h111l4 -3v-728q0 -286 -28 -327q-21 -57 -83 -93l-6 -2l-2 1v36h-3q-85 -101 -213 -101h-19q-102 0 -137 66l-4 18v3q0 42 44 65q10 4 21 4h8q43 0 107 -63
q34 -26 50 -26h14q28 0 51 39q18 29 18 146v633q0 130 -20 149q-12 16 -40 16q-18 0 -55 -11h-2q-10 24 -10 29v1q169 68 190 79v66z" />
    <glyph glyph-name="k" unicode="k" horiz-adv-x="1026" 
d="M341 1408l5 -4v-895h3q162 147 174 160v180q0 7 59 72q61 72 68 72h314l3 -3q-326 -346 -337 -362l360 -627l-1 -1h-274q-10 0 -19 23l-170 301h-2v-41l-2 -3l-172 220h-4v-225q0 -176 14 -191q23 -47 94 -47h34l5 -4v-29l-5 -4h-454l-4 4v29l4 4h15q96 0 116 48
q16 21 16 163v644q0 343 -13 343q-14 41 -52 41h-10q-15 0 -56 -15h-4l-15 35q268 112 277 112h33zM509 552l13 -14h1v27q-14 -3 -14 -13z" />
    <glyph glyph-name="l" unicode="l" horiz-adv-x="522" 
d="M290 1402l1 -2v-19h130l4 -4v-1373l-4 -4h-341l-4 4v29l4 5h18q82 0 100 54q13 27 13 130v781q0 239 -11 239q0 20 -29 39l-16 4h-18q-18 0 -60 -13q-3 0 -17 35z" />
    <glyph glyph-name="m" unicode="m" horiz-adv-x="1569" 
d="M1181 1025h26q165 0 257 -121q58 -71 58 -253v-647l-4 -4h-258l-4 4v531q0 216 -35 240q-37 45 -92 45h-26q-68 0 -131 -69q-52 -66 -52 -246v-501l-5 -4h-321l-4 4v30l4 4h20q95 0 117 61q9 0 9 160v305q0 156 -31 197q-47 66 -113 66h-24q-88 0 -210 -111
q-12 -14 -12 -20v-515q0 -105 39 -124q21 -19 84 -19h21l4 -4v-30l-4 -4h-447l-4 4v30l4 4h17q85 0 105 54q14 22 14 141v272q0 262 -13 262q-13 38 -27 38q-10 7 -25 7h-9q-26 0 -62 -13h-3q-12 21 -14 35v2q269 109 283 112h32l5 -5v-189h2q142 143 157 143q79 49 150 49
h17q74 0 139 -49h3v51l1 1v1q37 -32 61 -70q0 -5 7 -12h1q137 157 293 157z" />
    <glyph glyph-name="n" unicode="n" horiz-adv-x="1108" 
d="M677 1024h26q122 0 224 -78q57 -57 65 -90q34 -66 34 -212v-640l-4 -4h-257l-5 4v490q0 214 -26 250q-48 75 -123 75h-28q-91 0 -204 -124v-486q0 -116 23 -131q21 -36 103 -36h20l4 -4v-30l-4 -4h-447l-4 4v29l4 4q104 0 119 51q16 40 16 113v377q0 186 -12 186
q-11 47 -55 47h-7q-22 0 -63 -13h-3l-13 37q278 111 282 111h33l4 -4v-186h4q75 89 135 130l38 24v82q0 12 38 17q39 11 83 11z" />
    <glyph glyph-name="o" unicode="o" horiz-adv-x="1010" 
d="M467 1026h7q226 0 381 -179q109 -140 109 -320v-13q0 -275 -227 -432q-122 -76 -261 -76h-10q0 -6 -4 -6h-22q-206 0 -332 194q-78 122 -78 273q0 177 125 341q66 68 96 81q103 58 201 58h11v75zM213 555v-20q0 -235 122 -390q50 -54 102 -67l26 -6v141l4 4h4
q114 0 188 118q38 72 38 179v10q0 222 -173 284q-28 7 -53 7h-4l-4 4v61l-7 1h-36q-65 0 -132 -62q-75 -92 -75 -264z" />
    <glyph glyph-name="p" unicode="p" horiz-adv-x="1010" 
d="M596 1024h25q190 0 324 -191q78 -132 78 -322q0 -366 -270 -495q-73 -27 -135 -27h-24q-54 0 -54 12v35h-16q-118 0 -200 76h-1v-301q0 -92 24 -112q28 -32 107 -32h17l4 -4v-29l-4 -4h-467l-4 4v27q0 4 6 4q121 0 140 54q11 20 11 160v788q0 156 -13 156q-16 37 -58 37
h-12q-18 0 -56 -12h-2l-10 30q235 98 284 115h28l5 -5v-201h1q35 58 88 118q65 62 114 76l14 4v26q0 10 23 10q7 3 33 3zM323 718v-375q0 -133 41 -168q61 -78 155 -78h21v98l5 4h11q96 0 160 103q40 75 40 209q0 221 -132 286q-36 19 -72 19h-7l-5 4v31h-18
q-87 0 -177 -105q-22 -19 -22 -28z" />
    <glyph glyph-name="q" unicode="q" horiz-adv-x="1024" 
d="M465 1017q75 -10 145 -60q80 -72 89 -100h5v139l4 4h234l4 -4v-1366l-4 -4h-255l-4 4v491h-3q-69 -75 -104 -89q-48 -30 -112 -43l-2 1v54q-43 -9 -64 -9h-17q-149 0 -266 174q-65 114 -65 258v20q0 294 237 451q65 44 175 61v15zM218 565v-29q0 -260 188 -345
q40 -13 56 -13v9l5 4h8q100 0 175 120q41 78 41 204q0 231 -150 289q-30 10 -55 10h-19l-5 4v111h-2v1q-62 -5 -131 -59q-111 -100 -111 -306z" />
    <glyph glyph-name="r" unicode="r" horiz-adv-x="692" 
d="M570 1022h16q79 0 164 -49v-2l-80 -228l-48 24q-38 17 -67 17h-24q-81 0 -124 -89q-33 -83 -33 -186q-6 -56 -6 -221v-284l-4 -4h-351l-5 4v30l5 4h12q84 0 112 47q15 15 15 111v350q0 225 -12 225q-17 38 -57 38h-8q-23 0 -65 -12q-4 0 -10 35v1q225 89 228 93v71l5 4
h112l5 -4v-133h1q34 52 76 97q61 61 143 61z" />
    <glyph glyph-name="s" unicode="s" horiz-adv-x="702" 
d="M312 1021h8q302 0 386 -200q14 -26 21 -56l-241 -45q-21 64 -69 93q-47 22 -97 22h-8l-5 4v39q0 5 -24 5h-30q-81 0 -126 -71q-11 -19 -11 -43v-3q0 -107 145 -170q42 -22 46 -22v80l3 3q220 -46 313 -95q138 -72 138 -229q0 -156 -154 -261q-115 -64 -270 -64h-27
q0 -8 -4 -8h-5q-73 0 -208 36l-15 1h-11q-15 0 -31 -23h-28l-4 4v310l4 4h26q4 0 15 -52q41 -129 130 -183q63 -38 117 -38h11v132l5 4h25q111 0 155 60q9 20 9 36v16q0 50 -84 69l-107 24v-20l-3 -3q-121 63 -185 101q-37 22 -84 74q-38 60 -38 132q0 144 128 223
q62 34 130 34h19l30 -1v76z" />
    <glyph glyph-name="t" unicode="t" horiz-adv-x="674" 
d="M407 1406h1v-359h180l4 -4v-209l-4 -4h-180v-475q0 -96 12 -96q20 -30 52 -30h17q33 0 101 24l24 -208q-91 -42 -200 -42h-24q-50 0 -116 20h-1v-20l-1 -2v-1q-49 28 -69 89q-16 46 -16 170v591h-143l-4 5v23q0 9 30 20q47 24 124 100q75 95 75 110v213q0 9 30 23
q102 62 108 62z" />
    <glyph glyph-name="u" unicode="u" horiz-adv-x="1059" 
d="M751 1030h257l4 -4v-994l-4 -4h-238l-5 4v140h-1q-81 -107 -202 -145q-66 -27 -113 -27h-17q-121 0 -190 123q-37 73 -37 223v412q0 96 -25 115q-22 36 -127 36l-3 4v30l4 4h313l5 -4v-589q0 -162 48 -195q45 -35 93 -35h18q30 0 30 6v77q0 4 39 12q83 33 115 91
q32 46 32 260v456z" />
    <glyph glyph-name="v" unicode="v" horiz-adv-x="993" 
d="M764 1026h269l3 -3l-400 -1011l-2 -2q-2 -10 -10 -10h-120q-9 0 -13 17l-347 818q-27 56 -85 83l-58 13l-1 1v33l4 5h434l4 -5v-30q0 -4 -6 -4q-81 0 -95 -32q-10 -19 -10 -41q0 -47 66 -189q112 -265 112 -270v-58q3 0 43 131l207 552z" />
    <glyph glyph-name="w" unicode="w" horiz-adv-x="1415" 
d="M760 1028h126q5 0 25 -88l149 -580h1l196 666l1 2h262l3 -3q-317 -997 -330 -1025h-253q-11 0 -11 17l-166 619l-1 1h-2v-36q0 -11 -194 -429q-71 -163 -80 -171h-33q-5 0 -97 249l-226 585q-18 40 -49 67q-26 18 -78 32l-3 3v32l4 4h387l4 -4v-32l-4 -5q-63 0 -80 -34
l-4 -18v-14q0 -39 56 -180l160 -430h4l198 437q-54 155 -81 190q-32 49 -116 49l-4 5v32l4 4h228v51z" />
    <glyph glyph-name="x" unicode="x" horiz-adv-x="1010" 
d="M1007 1041l3 -3l-350 -491l381 -546v-1h-330q-9 0 -25 29q-179 270 -182 280v30l-55 79h-5q-180 -239 -215 -298l-3 -13v-9q0 -33 58 -55l28 -3h2l4 -5v-29l-4 -5h-302l-5 5v29q1 4 36 12q47 15 167 176l193 261q-175 263 -252 361q-57 70 -139 70h-8l-4 4v33l4 4h440
l5 -4v-33l-5 -4h-9q-52 0 -63 -40v-14q0 -29 66 -121l65 -102h1v124q0 12 52 81q99 149 135 198h316z" />
    <glyph glyph-name="y" unicode="y" horiz-adv-x="868" 
d="M4 1028h432l5 -4v-31q0 -4 -6 -4q-78 0 -97 -32q-12 -17 -12 -34v-5q0 -54 81 -209q98 -201 106 -225v-177q4 0 126 379l111 332l1 1h277q3 0 3 -4l-435 -1186q-32 -81 -80 -144l-6 -4l-1 1v224h-3q-25 -65 -70 -130q-80 -105 -200 -140q-20 -6 -40 -6h-15q-88 0 -127 84
q-5 13 -6 31q0 66 68 91q18 4 32 4h10q29 0 135 -36h16q30 0 75 51q39 47 121 268q-327 690 -357 745q-62 99 -100 106l-48 16v34z" />
    <glyph glyph-name="z" unicode="z" horiz-adv-x="727" 
d="M464 1038h421l4 -4v-184q0 -11 -22 -32q-365 -423 -406 -466l-2 2v15h-1l-224 -296v-3h225v167l3 4l88 2h366l4 -5v-234l-4 -4h-912l-4 4v25q0 12 38 57l421 563v93q0 8 60 68v3l-57 -1l-3 4v62h-54q-204 0 -221 -15q-36 -20 -55 -69q-15 -31 -24 -105l-1 -2h-35l-5 5
l6 257l5 3h384v82z" />
    <glyph glyph-name="braceleft" unicode="{" 
d="M240 698q172 5 223 71t51 133v468q0 74 77 141.5t185 67.5h108v-50h-90q-61 0 -107 -33.5t-47 -91.5v-500q0 -83 -60.5 -158.5t-142.5 -76.5v-2q82 -1 143 -76t61 -158l-1 -500q1 -58 47 -91.5t107 -33.5h90v-50h-108q-108 0 -184.5 67.5t-77.5 141.5v468q0 66 -51 132
t-223 71v60z" />
    <glyph glyph-name="bar" unicode="|" 
d="M427 1577h160v-1995h-160v1995z" />
    <glyph glyph-name="braceright" unicode="}" 
d="M774 638q-172 -5 -223 -71t-51 -132v-468q-1 -74 -77.5 -141.5t-184.5 -67.5h-108v50h90q61 0 107 33.5t47 91.5l-1 500q0 83 61 158t144 76v2q-83 1 -143.5 76.5t-60.5 158.5v500q-1 58 -47 91.5t-107 33.5h-90v50h108q108 0 185 -67.5t77 -141.5v-468q0 -67 51 -133
t223 -71v-60z" />
    <glyph glyph-name="asciitilde" unicode="~" 
d="M923 878v-156q-63 -72 -122 -97.5t-116 -25.5q-60 0 -177.5 48.5t-176.5 48.5q-51 0 -107.5 -28t-129.5 -112v156q64 73 123 99t114 26q64 0 181.5 -49.5t172.5 -49.5q52 0 108.5 28t129.5 112z" />
    <glyph glyph-name="exclamdown" unicode="&#xa1;" horiz-adv-x="672" 
 />
    <glyph glyph-name="cent" unicode="&#xa2;" horiz-adv-x="1139" 
 />
    <glyph glyph-name="sterling" unicode="&#xa3;" 
d="M748 1347q-72 31 -160 31h-2q-100 0 -190 -101q-84 -93 -84 -241q0 -15 1 -30q0 -135 53 -273h360v-60h-334q14 -30 31 -60q35 -63 35 -138q0 -161 -162 -375h402q130 0 189 132l49 -1l-103 -231h-719l1 50q187 238 187 418q0 77 -34 143q-17 32 -31 62h-161v60h135
q-58 143 -58 253q0 226 123.5 347t306.5 121h4q75 0 185.5 -14t110.5 -34v-161h-58q-5 61 -77 102z" />
    <glyph glyph-name="currency" unicode="&#xa4;" 
d="M350 560q41 -40 99 -57q29 -8 58 -8t58 8q58 17 99 57q40 41 57 99q9 29 9 58t-9 58q-17 58 -57 99q-41 40 -100 57q-29 8 -58 8t-58 -9q-58 -17 -98 -56q-39 -40 -56 -98q-10 -30 -10 -60q0 -28 9 -56q16 -59 57 -100zM240 903l-118 118l80 81l118 -118q44 30 99 46
q44 14 89 14q41 0 83 -12q57 -17 102 -48l118 118l80 -81l-117 -117q31 -46 48 -102q12 -42 12 -85q0 -42 -12 -85q-17 -56 -48 -102l117 -117l-80 -81l-118 118q-45 -32 -101 -48q-42 -12 -85 -12q-42 0 -85 12q-57 16 -102 48l-118 -118l-80 81l118 117q-32 46 -48 103
q-12 42 -12 84q0 44 13 87q16 55 47 99z" />
    <glyph glyph-name="yen" unicode="&#xa5;" horiz-adv-x="1262" 
d="M547 225l-2 242q0 19 -1.5 35t-4.5 32l-484 1q-14 0 -21 6.5t-7 19.5t6.5 19t21.5 6h467l-121 172h-344q-17 0 -23.5 5.5t-6.5 18.5q0 14 6 19.5t22 5.5h307q-43 57 -108 155q-131 197 -227 197q-7 0 -13 5.5t-6 11.5q0 19 10.5 27.5t32.5 8.5q27 0 123 -8t164 -8h57h31
q33 0 41 -6.5t8 -26.5q0 -8 -15 -14t-38 -6q-6 0 -18.5 2t-18.5 2q-24 0 -37.5 -9.5t-13.5 -25.5q0 -18 16.5 -52t46.5 -77l158 -221q13 -19 33 -53q41 -70 71 -70q9 0 16.5 5t14.5 15l277 396q8 12 13 26.5t5 24.5q0 18 -10 27t-37 14q-15 2 -41 4q-47 3 -47 25
q0 15 8 22.5t25 7.5q3 0 15 -1q56 -7 108 -7h139q30 0 65 1t37 1q11 0 18.5 -4.5t8.5 -11.5q0 -28 -38 -34q-18 -3 -27 -5q-63 -15 -147 -117q-7 -9 -12 -15l-169 -206h323q15 0 24 -6t9 -17q0 -15 -6 -20.5t-23 -5.5h-366q-46 -57 -96.5 -112.5t-52.5 -59.5h511
q18 0 25.5 -5.5t7.5 -17.5q0 -14 -7 -21t-22 -7h-530q0 -11 -1 -30.5t-1 -29.5l2 -215q0 -114 5.5 -150t20.5 -44q30 -17 107.5 -19t77.5 -31q0 -12 -10 -20t-25 -8q-2 0 -35.5 4t-64.5 4q-91 0 -208.5 -4t-142.5 -4q-31 0 -40 4t-9 16t8 18.5t37 12.5q9 2 25 5q74 16 92 32
q17 13 24 47t7 102z" />
    <glyph glyph-name="brokenbar" unicode="&#xa6;" 
d="M427 371h160v-789h-160v789zM427 1578h160v-789h-160v789z" />
    <glyph glyph-name="section" unicode="&#xa7;" 
d="M545 321q56 16 97 53q73 65 73 166q0 5 -1 10h-2q-1 14 -4 27q-22 61 -113 127q-59 29 -126 29q-78 0 -125 -44.5t-47 -117.5q0 -123 248 -250zM466 -346q113 6 185 69q72 64 72 165q0 125 -316 276q-123 64 -175.5 137t-52.5 177q0 148 89 237q67 65 170 82l-40 19
q-123 64 -175.5 137t-52.5 177q0 148 89 237q82 79 216 86q8 1 17 1h3q66 0 163 -16.5t97 -41.5v-194h-51q-5 81 -80 132q-70 47 -149 51h-15q-78 0 -125 -44.5t-47 -117.5q0 -132 287 -269q149 -67 204.5 -143.5t55.5 -187.5q0 -171 -101 -282q-47 -39 -99 -64
q108 -56 154 -118q55 -77 55 -187q0 -171 -101 -283q-124 -102 -277 -105v1q-6 -1 -13 -1h-3q-66 0 -163 16.5t-97 41.5v194h51q5 -81 80 -132q68 -45 145 -50z" />
    <glyph glyph-name="dieresis" unicode="&#xa8;" horiz-adv-x="1024" 
d="M223 1289l71 72q13 12 25 12q11 0 27 -14l69 -73q10 -14 10 -25q0 -13 -12 -27l-69 -75q-17 -17 -25 -17q-14 0 -25 12l-76 86q-9 12 -9 23q0 13 14 26zM588 1289l71 72q13 12 25 12q11 0 27 -13l69 -74q10 -14 10 -25q0 -13 -12 -26l-69 -76q-17 -17 -25 -17
q-14 0 -25 12l-76 87q-9 11 -9 22q0 13 14 26z" />
    <glyph glyph-name="copyright" unicode="&#xa9;" horiz-adv-x="1674" 
d="M840 1456q145 0 280 -56.5t239 -160.5q102 -101 158.5 -238t56.5 -283q0 -147 -56.5 -282t-162.5 -240q-105 -105 -239 -159.5t-283 -54.5q-146 0 -278 55.5t-238 160.5q-106 104 -161.5 237.5t-55.5 282.5q0 148 55.5 283t159.5 238q102 104 238.5 160.5t286.5 56.5z
M357 1197q-95 -96 -146 -219.5t-51 -259.5q0 -137 51 -259t148 -219q98 -96 219 -147t256 -51q137 0 259.5 50.5t219.5 145.5q97 98 149 221.5t52 258.5q0 134 -52 259.5t-145 219.5q-96 96 -220 147.5t-258 51.5q-137 0 -262 -51.5t-220 -147.5zM865 223q-142 0 -264 68
t-186 185t-64 243t65.5 244t187.5 184.5t254 66.5q38 0 75 -6.5t76 -20.5q5 -1 9 -1q19 0 26 30h42l72 -198h-44q-52 94 -131 124q-72 26 -147 26h-15q-86 -8 -166.5 -71t-121.5 -177q-33 -90 -33 -184q0 -25 2 -50q11 -121 69.5 -224t149.5 -152q72 -40 166 -42
q124 0 194 56t70 126h53v-100q0 -46 -96.5 -86.5t-242.5 -40.5z" />
    <glyph glyph-name="ordfeminine" unicode="&#xaa;" horiz-adv-x="648" 
 />
    <glyph glyph-name="guillemotleft" unicode="&#xab;" horiz-adv-x="944" 
d="M174 479l342 303h14v-37l-205 -266l205 -266v-37h-14zM487 479l342 303h14v-37l-205 -266l205 -266v-37h-14z" />
    <glyph glyph-name="logicalnot" unicode="&#xac;" 
d="M87 767h840v-491l-1 -1h-98v392h-741v100z" />
    <glyph glyph-name="registered" unicode="&#xae;" horiz-adv-x="1674" 
d="M751 1099v-374l3 -8q23 -56 56 -81q29 -22 56 -22h6q31 4 61.5 38.5t46.5 97.5q13 50 13 103q0 13 -1 27q-4 67 -28 124.5t-56.5 76t-63.5 18.5h-93zM984 576l82 -116q100 -141 150 -141h34v-50h-346v50h45q30 0 30 22q0 29 -69 114l-75 102q-42 0 -84 42v-159
q0 -121 36 -121h53v-50h-316v50h43q37 0 37 121v538q0 121 -37 121h-43v70h356q64 -1 125 -42q60 -41 92.5 -114t32.5 -152q0 -78 -32 -150.5t-114 -134.5zM840 1456q145 0 280 -56.5t239 -160.5q102 -101 158.5 -238t56.5 -283q0 -147 -56.5 -282t-162.5 -240
q-105 -105 -239 -159.5t-283 -54.5q-146 0 -278 55.5t-238 160.5q-106 104 -161.5 237.5t-55.5 282.5q0 148 55.5 283t159.5 238q102 104 238.5 160.5t286.5 56.5zM357 1197q-95 -96 -146 -219.5t-51 -259.5q0 -137 51 -259t148 -219q98 -96 219 -147t256 -51
q137 0 259.5 50.5t219.5 145.5q97 98 149 221.5t52 258.5q0 134 -52 259.5t-145 219.5q-96 96 -220 147.5t-258 51.5q-137 0 -262 -51.5t-220 -147.5z" />
    <glyph glyph-name="macron" unicode="&#xaf;" horiz-adv-x="670" 
 />
    <glyph glyph-name="degree" unicode="&#xb0;" horiz-adv-x="674" 
d="M339 1372q-86 0 -147.5 -61t-61.5 -148t61 -147t148 -60t147 60t60 147t-60.5 148t-146.5 61zM339 1442q115 0 196 -81.5t81 -196.5q0 -114 -82 -196t-197 -82q-117 0 -197 81t-80 197t81.5 197t197.5 81z" />
    <glyph glyph-name="plusminus" unicode="&#xb1;" 
 />
    <glyph glyph-name="uni00B2" unicode="&#xb2;" 
 />
    <glyph glyph-name="uni00B3" unicode="&#xb3;" 
 />
    <glyph glyph-name="acute" unicode="&#xb4;" horiz-adv-x="1024" 
d="M607 1375q35 35 55.5 47t40.5 12q33 0 53.5 -20t20.5 -51q0 -22 -15.5 -42t-46.5 -40l-330 -203h-69z" />
    <glyph glyph-name="mu" unicode="&#xb5;" horiz-adv-x="1180" 
 />
    <glyph glyph-name="paragraph" unicode="&#xb6;" horiz-adv-x="1024" 
d="M929 1435v-70h-127v-1365h-82v1365h-166v-1365h-84v738q-174 8 -275.5 102.5t-101.5 245.5q0 157 107.5 253t285.5 96h443z" />
    <glyph glyph-name="periodcentered" unicode="&#xb7;" horiz-adv-x="508" 
 />
    <glyph glyph-name="periodcentered" unicode="&#x2219;" horiz-adv-x="508" 
 />
    <glyph glyph-name="cedilla" unicode="&#xb8;" horiz-adv-x="1024" 
 />
    <glyph glyph-name="uni00B9" unicode="&#xb9;" 
 />
    <glyph glyph-name="ordmasculine" unicode="&#xba;" horiz-adv-x="718" 
 />
    <glyph glyph-name="guillemotright" unicode="&#xbb;" horiz-adv-x="944" 
d="M115 176h-14v37l205 266l-205 266v37h14l342 -303zM428 176h-14v37l205 266l-205 266v37h14l342 -303z" />
    <glyph glyph-name="onequarter" unicode="&#xbc;" horiz-adv-x="1708" 
 />
    <glyph glyph-name="onehalf" unicode="&#xbd;" horiz-adv-x="1964" 
 />
    <glyph glyph-name="threequarters" unicode="&#xbe;" horiz-adv-x="1708" 
 />
    <glyph glyph-name="questiondown" unicode="&#xbf;" horiz-adv-x="748" 
 />
    <glyph glyph-name="Agrave" unicode="&#xc0;" horiz-adv-x="1540" 
 />
    <glyph glyph-name="Aacute" unicode="&#xc1;" horiz-adv-x="1540" 
 />
    <glyph glyph-name="Acircumflex" unicode="&#xc2;" horiz-adv-x="1540" 
 />
    <glyph glyph-name="Atilde" unicode="&#xc3;" horiz-adv-x="1540" 
 />
    <glyph glyph-name="Adieresis" unicode="&#xc4;" horiz-adv-x="1540" 
 />
    <glyph glyph-name="Aring" unicode="&#xc5;" horiz-adv-x="1540" 
 />
    <glyph glyph-name="AE" unicode="&#xc6;" horiz-adv-x="2118" 
 />
    <glyph glyph-name="Ccedilla" unicode="&#xc7;" horiz-adv-x="1399" 
 />
    <glyph glyph-name="Egrave" unicode="&#xc8;" horiz-adv-x="1151" 
 />
    <glyph glyph-name="Eacute" unicode="&#xc9;" horiz-adv-x="1151" 
 />
    <glyph glyph-name="Ecircumflex" unicode="&#xca;" horiz-adv-x="1151" 
 />
    <glyph glyph-name="Edieresis" unicode="&#xcb;" horiz-adv-x="1151" 
 />
    <glyph glyph-name="Igrave" unicode="&#xcc;" horiz-adv-x="657" 
 />
    <glyph glyph-name="Iacute" unicode="&#xcd;" horiz-adv-x="657" 
 />
    <glyph glyph-name="Icircumflex" unicode="&#xce;" horiz-adv-x="657" 
 />
    <glyph glyph-name="Idieresis" unicode="&#xcf;" horiz-adv-x="657" 
 />
    <glyph glyph-name="Eth" unicode="&#xd0;" horiz-adv-x="1518" 
 />
    <glyph glyph-name="Ntilde" unicode="&#xd1;" horiz-adv-x="1554" 
 />
    <glyph glyph-name="Ograve" unicode="&#xd2;" horiz-adv-x="1614" 
 />
    <glyph glyph-name="Oacute" unicode="&#xd3;" horiz-adv-x="1614" 
 />
    <glyph glyph-name="Ocircumflex" unicode="&#xd4;" horiz-adv-x="1614" 
 />
    <glyph glyph-name="Otilde" unicode="&#xd5;" horiz-adv-x="1614" 
 />
    <glyph glyph-name="Odieresis" unicode="&#xd6;" horiz-adv-x="1614" 
 />
    <glyph glyph-name="multiply" unicode="&#xd7;" 
d="M507 618l-247 -247l-99 99l247 247l-247 248l99 98l247 -247l248 247l98 -99l-247 -247l247 -247l-99 -99z" />
    <glyph glyph-name="Oslash" unicode="&#xd8;" horiz-adv-x="1614" 
 />
    <glyph glyph-name="Ugrave" unicode="&#xd9;" horiz-adv-x="1501" 
 />
    <glyph glyph-name="Uacute" unicode="&#xda;" horiz-adv-x="1501" 
 />
    <glyph glyph-name="Ucircumflex" unicode="&#xdb;" horiz-adv-x="1501" 
 />
    <glyph glyph-name="Udieresis" unicode="&#xdc;" horiz-adv-x="1501" 
 />
    <glyph glyph-name="Yacute" unicode="&#xdd;" horiz-adv-x="1233" 
 />
    <glyph glyph-name="Thorn" unicode="&#xde;" horiz-adv-x="1120" 
 />
    <glyph glyph-name="germandbls" unicode="&#xdf;" horiz-adv-x="1251" 
 />
    <glyph glyph-name="agrave" unicode="&#xe0;" horiz-adv-x="922" 
 />
    <glyph glyph-name="aacute" unicode="&#xe1;" horiz-adv-x="922" 
 />
    <glyph glyph-name="acircumflex" unicode="&#xe2;" horiz-adv-x="922" 
 />
    <glyph glyph-name="atilde" unicode="&#xe3;" horiz-adv-x="922" 
 />
    <glyph glyph-name="adieresis" unicode="&#xe4;" horiz-adv-x="922" 
 />
    <glyph glyph-name="aring" unicode="&#xe5;" horiz-adv-x="922" 
 />
    <glyph glyph-name="ae" unicode="&#xe6;" horiz-adv-x="1454" 
 />
    <glyph glyph-name="ccedilla" unicode="&#xe7;" horiz-adv-x="905" 
 />
    <glyph glyph-name="egrave" unicode="&#xe8;" horiz-adv-x="909" 
 />
    <glyph glyph-name="eacute" unicode="&#xe9;" horiz-adv-x="909" 
 />
    <glyph glyph-name="ecircumflex" unicode="&#xea;" horiz-adv-x="909" 
 />
    <glyph glyph-name="edieresis" unicode="&#xeb;" horiz-adv-x="909" 
 />
    <glyph glyph-name="igrave" unicode="&#xec;" horiz-adv-x="514" 
 />
    <glyph glyph-name="iacute" unicode="&#xed;" horiz-adv-x="514" 
 />
    <glyph glyph-name="icircumflex" unicode="&#xee;" horiz-adv-x="514" 
 />
    <glyph glyph-name="idieresis" unicode="&#xef;" horiz-adv-x="514" 
 />
    <glyph glyph-name="eth" unicode="&#xf0;" horiz-adv-x="1139" 
 />
    <glyph glyph-name="ntilde" unicode="&#xf1;" horiz-adv-x="1108" 
 />
    <glyph glyph-name="ograve" unicode="&#xf2;" horiz-adv-x="1010" 
 />
    <glyph glyph-name="oacute" unicode="&#xf3;" horiz-adv-x="1010" 
 />
    <glyph glyph-name="ocircumflex" unicode="&#xf4;" horiz-adv-x="1010" 
 />
    <glyph glyph-name="otilde" unicode="&#xf5;" horiz-adv-x="1010" 
 />
    <glyph glyph-name="odieresis" unicode="&#xf6;" horiz-adv-x="1010" 
 />
    <glyph glyph-name="divide" unicode="&#xf7;" 
d="M87 647v140h839l1 -1v-139h-840zM398 408l82 84q15 14 29 14q13 0 31 -16l80 -86q12 -16 12 -29q0 -15 -14 -31l-80 -88q-20 -20 -29 -20q-16 0 -29 14l-88 101q-10 13 -10 26q0 15 16 31zM398 1101l82 84q15 14 29 14q13 0 31 -16l80 -86q12 -16 12 -29q0 -15 -14 -31
l-80 -88q-20 -20 -29 -20q-16 0 -29 14l-88 101q-10 13 -10 26q0 15 16 31z" />
    <glyph glyph-name="oslash" unicode="&#xf8;" horiz-adv-x="1010" 
 />
    <glyph glyph-name="ugrave" unicode="&#xf9;" horiz-adv-x="1059" 
 />
    <glyph glyph-name="uacute" unicode="&#xfa;" horiz-adv-x="1059" 
 />
    <glyph glyph-name="ucircumflex" unicode="&#xfb;" horiz-adv-x="1059" 
 />
    <glyph glyph-name="udieresis" unicode="&#xfc;" horiz-adv-x="1059" 
 />
    <glyph glyph-name="yacute" unicode="&#xfd;" horiz-adv-x="868" 
 />
    <glyph glyph-name="thorn" unicode="&#xfe;" horiz-adv-x="1010" 
 />
    <glyph glyph-name="ydieresis" unicode="&#xff;" horiz-adv-x="868" 
 />
    <glyph glyph-name="dotlessi" unicode="&#x131;" horiz-adv-x="514" 
d="M328 223q0 -173 100 -173h46v-50h-442v50h46q100 0 100 173v432q0 77 -111 77h-48v44q222 69 261 182h48v-735z" />
    <glyph glyph-name="circumflex" unicode="&#x2c6;" horiz-adv-x="1024" 
d="M221 1079l232 355h118l232 -355h-58l-233 216l-233 -216h-58z" />
    <glyph glyph-name="caron" unicode="&#x2c7;" horiz-adv-x="1024" 
d="M221 1434h58l233 -214l233 214h58l-232 -356h-118z" />
    <glyph glyph-name="uni02C9" unicode="&#x2c9;" horiz-adv-x="1024" 
d="M254 1195v125h516v-125h-516z" />
    <glyph glyph-name="breve" unicode="&#x2d8;" horiz-adv-x="1024" 
d="M219 1349h51q17 -73 75 -107t167 -34t166 33.5t74 107.5h51q-20 -133 -94 -201.5t-197 -68.5q-122 0 -197 69t-96 201z" />
    <glyph glyph-name="dotaccent" unicode="&#x2d9;" horiz-adv-x="1024" 
d="M422 1289l69 72q6 6 13 9t14 3q6 0 12.5 -3t12.5 -9l71 -76q5 -4 7 -10t2 -14q-1 -9 -3 -15t-8 -12l-71 -76q-12 -11 -16 -13.5t-7 -2.5q-10 0 -16.5 2.5t-10.5 8.5l-75 87q-4 4 -6 9.5t-2 13.5q0 6 3 12.5t11 13.5z" />
    <glyph glyph-name="ring" unicode="&#x2da;" horiz-adv-x="1024" 
d="M411 1257q0 -42 29 -71t71 -29t71 29t29 71q0 40 -29.5 69.5t-70.5 29.5t-70.5 -29.5t-29.5 -69.5zM335 1257q0 75 51 126t125 51q76 0 127.5 -51.5t51.5 -125.5q0 -75 -51.5 -126.5t-127.5 -51.5q-74 0 -125 51.5t-51 126.5z" />
    <glyph glyph-name="ogonek" unicode="&#x2db;" horiz-adv-x="1024" 
d="M640 0q-71 -62 -110.5 -119.5t-39.5 -112.5q0 -47 27 -75t73 -28q40 0 69.5 15.5t49.5 48.5l28 -16q-36 -63 -90.5 -97t-119.5 -34q-70 0 -114 35.5t-44 90.5q0 76 60.5 156.5t161.5 135.5h49z" />
    <glyph glyph-name="tilde" unicode="&#x2dc;" horiz-adv-x="1024" 
d="M808 1382q-20 -103 -68.5 -154t-126.5 -51h-4q-50 0 -113 23q-66 24 -114 24q-39 0 -60.5 -20.5t-33.5 -71.5h-54q19 106 68 158.5t129 52.5q46 -1 113 -24q64 -23 112 -23h4q36 0 58 20t36 66h54z" />
    <glyph glyph-name="hungarumlaut" unicode="&#x2dd;" horiz-adv-x="1024" 
d="M217 1079l144 273q24 44 45.5 63t46.5 19q28 0 48 -20t20 -47q0 -16 -10.5 -35t-30.5 -41l-205 -212h-58zM502 1079l144 273q24 44 45.5 63t46.5 19q28 0 48 -20t20 -47q0 -16 -10.5 -35t-30.5 -41l-205 -212h-58z" />
    <glyph glyph-name="endash" unicode="&#x2013;" horiz-adv-x="1108" 
d="M56 419v120h996v-120h-996z" />
    <glyph glyph-name="emdash" unicode="&#x2014;" horiz-adv-x="2048" 
d="M0 419v120h2048v-120h-2048z" />
    <glyph glyph-name="quoteleft" unicode="&#x2018;" horiz-adv-x="557" 
d="M319 1016q-44 0 -88.5 65.5t-44.5 151.5q0 109 71 226.5t139 117.5v-43q-73 -43 -87 -190q0 -119 129 -161v-42z" />
    <glyph glyph-name="quoteright" unicode="&#x2019;" horiz-adv-x="557" 
d="M238 1577q44 0 88.5 -65.5t44.5 -151.5q0 -109 -71 -226.5t-139 -117.5v43q73 43 87 190q0 119 -129 161v42z" />
    <glyph glyph-name="quotesinglbase" unicode="&#x201a;" horiz-adv-x="557" 
d="M238 281q44 0 88.5 -65.5t44.5 -151.5q0 -109 -71 -226.5t-139 -117.5v43q73 43 87 190q0 119 -129 161v42z" />
    <glyph glyph-name="quotedblleft" unicode="&#x201c;" horiz-adv-x="910" 
d="M319 1016q-44 0 -88.5 65.5t-44.5 151.5q0 109 71 226.5t139 117.5v-43q-73 -43 -87 -190q0 -119 129 -161v-42zM672 1016q-44 0 -88.5 65.5t-44.5 151.5q0 109 71 226.5t139 117.5v-43q-73 -43 -87 -190q0 -119 129 -161v-42z" />
    <glyph glyph-name="quotedblright" unicode="&#x201d;" horiz-adv-x="910" 
d="M238 1577q44 0 88.5 -65.5t44.5 -151.5q0 -109 -71 -226.5t-139 -117.5v43q73 43 87 190q0 119 -129 161v42zM591 1577q44 0 88.5 -65.5t44.5 -151.5q0 -109 -71 -226.5t-139 -117.5v43q73 43 87 190q0 119 -129 161v42z" />
    <glyph glyph-name="quotedblbase" unicode="&#x201e;" horiz-adv-x="910" 
d="M238 281q44 0 88.5 -65.5t44.5 -151.5q0 -109 -71 -226.5t-139 -117.5v43q73 43 87 190q0 119 -129 161v42zM591 281q44 0 88.5 -65.5t44.5 -151.5q0 -109 -71 -226.5t-139 -117.5v43q73 43 87 190q0 119 -129 161v42z" />
    <glyph glyph-name="dagger" unicode="&#x2020;" 
d="M486 1022q-8 97 -54 178q-57 101 -57 129q0 49 36 78.5t96 29.5q57 0 94.5 -27.5t37.5 -71.5q0 -32 -55 -137q-46 -85 -55 -179q96 8 177 54q101 57 129 57q49 0 79 -36t30 -96q0 -57 -27.5 -94.5t-72.5 -37.5q-32 0 -136 55q-85 46 -179 57q8 -176 110 -277
q-106 -460 -112 -974h-38q-6 514 -114 974q102 101 111 277q-96 -10 -178 -55q-101 -57 -129 -57q-49 0 -78.5 36t-29.5 96q0 57 27.5 94.5t71.5 37.5q32 0 137 -56q85 -46 179 -55z" />
    <glyph glyph-name="daggerdbl" unicode="&#x2021;" 
d="M528 186q94 11 179 57q104 55 136 55q45 0 72.5 -37.5t27.5 -94.5q0 -60 -30 -96t-79 -36q-28 0 -129 57q-81 46 -177 54q9 -94 55 -179q55 -105 55 -137q0 -44 -37.5 -71.5t-94.5 -27.5q-60 0 -96 29.5t-36 78.5q0 28 57 129q46 81 54 178q-94 -9 -179 -55
q-105 -56 -137 -56q-44 0 -71.5 37.5t-27.5 94.5q0 60 29.5 96t78.5 36q28 0 129 -57q82 -45 178 -55q-9 226 -111 398q102 171 111 397q-96 -10 -178 -55q-101 -57 -129 -57q-49 0 -78.5 36t-29.5 96q0 57 27.5 94.5t71.5 37.5q32 0 137 -56q85 -46 179 -55q-8 97 -54 178
q-57 101 -57 129q0 49 36 78.5t96 29.5q57 0 94.5 -27.5t37.5 -71.5q0 -32 -55 -137q-46 -85 -55 -179q96 8 177 54q101 57 129 57q49 0 79 -36t30 -96q0 -57 -27.5 -94.5t-72.5 -37.5q-32 0 -136 55q-85 46 -179 57q8 -226 110 -397q-102 -172 -110 -398z" />
    <glyph glyph-name="bullet" unicode="&#x2022;" horiz-adv-x="1024" 
d="M216 718q0 123 87 209t210 86q122 0 208.5 -86.5t86.5 -208.5t-87.5 -209.5t-209.5 -87.5q-123 0 -209 87t-86 210z" />
    <glyph glyph-name="ellipsis" unicode="&#x2026;" horiz-adv-x="2048" 
d="M145 167l82 84q15 14 29 14q13 0 31 -16l80 -86q12 -16 12 -29q0 -15 -14 -31l-80 -88q-20 -20 -29 -20q-16 0 -29 14l-88 101q-10 13 -10 26q0 15 16 31zM828 167l82 84q15 14 29 14q13 0 31 -16l80 -86q12 -16 12 -29q0 -15 -14 -31l-80 -88q-20 -20 -29 -20
q-16 0 -29 14l-88 101q-10 13 -10 26q0 15 16 31zM1511 167l82 84q15 14 29 14q13 0 31 -16l80 -86q12 -16 12 -29q0 -15 -14 -31l-80 -88q-20 -20 -29 -20q-16 0 -29 14l-88 101q-10 13 -10 26q0 15 16 31z" />
    <glyph glyph-name="guilsinglleft" unicode="&#x2039;" horiz-adv-x="631" 
d="M174 479l342 303h14v-37l-205 -266l205 -266v-37h-14z" />
    <glyph glyph-name="guilsinglright" unicode="&#x203a;" horiz-adv-x="631" 
d="M115 176h-14v37l205 266l-205 266v37h14l342 -303z" />
    <glyph glyph-name="fraction" unicode="&#x2044;" horiz-adv-x="342" 
d="M-342 -29l940 1461h84l-938 -1461h-86z" />
    <glyph glyph-name="fraction" unicode="&#x2215;" horiz-adv-x="342" 
d="M-342 -29l940 1461h84l-938 -1461h-86z" />
    <glyph glyph-name="franc" unicode="&#x20a3;" 
d="M247 357h-194v60h194v732q0 235 -103 235h-96v50h915l103 -231h-49q-59 182 -190 182l-316 -1q-102 0 -102 -235v-352h361q100 0 100 63v58h50v-342h-50v60q0 62 -100 62h-361v-281h194v-60h-194v-72q0 -235 102 -235h97v-50h-560v50h96q103 0 103 235v72z" />
    <glyph glyph-name="lira" unicode="&#x20a4;" 
d="M748 1347q-72 31 -160 31h-2q-100 0 -190 -101q-84 -93 -84 -241q0 -15 1 -30q0 -106 33 -213h380v-60h-360q12 -30 26 -60h352v-60h-321q35 -63 35 -138q0 -161 -162 -375h402q130 0 189 132l49 -1l-103 -231h-719l1 50q187 238 187 418q0 77 -34 143l-2 2h-172v60h143
q-14 31 -26 60h-135v60h113q-36 107 -36 193q0 226 123.5 347t310.5 121q75 0 185.5 -14t110.5 -34v-161h-58q-5 61 -77 102z" />
    <glyph glyph-name="peseta" unicode="&#x20a7;" horiz-adv-x="2028" 
d="M409 1384v-662q3 -9 7 -17q41 -102 108 -153q57 -44 116 -44q10 0 19 1q68 8 127 75t87 177q22 87 22 179q0 24 -1 47q-7 116 -49.5 218.5t-108.5 144.5q-56 35 -112 35q-10 0 -21 -1h-194zM1496 908h-179v-685q0 -81 34 -119q28 -31 81 -37l-71 192l49 1
q55 -130 114 -174q57 -44 127 -44h7q92 0 151 52q59 53 59 136q0 102 -259 226q-101 52 -144 112t-43 145q0 121 73 194zM1039 910q-7 -101 -48 -194q-50 -114 -141 -177.5t-190 -63.5q-100 0 -191 64q-33 22 -60 51v-305q0 -235 102 -235h97v-50h-560v50h96q103 0 103 235
v864q0 235 -103 235h-96v50h618q92 -2 181 -62q91 -62 143 -177q50 -113 51 -237h10q216 0 216 355h50v-355h259q42 19 110 20h2q54 0 133.5 -13.5t79.5 -33.5v-159h-42q-4 66 -65.5 108t-133.5 42q-64 0 -102.5 -36.5t-38.5 -96.5q0 -108 235 -220q122 -55 167.5 -117.5
t45.5 -153.5q0 -140 -83 -231q-102 -84 -228 -86q-58 0 -105 11q-28 6 -56 6q-18 0 -36 -3q-28 -5 -59 -5q-124 0 -173.5 57t-57.5 176h-1v687h-129z" />
    <glyph glyph-name="Euro" unicode="&#x20ac;" 
d="M140 372q-62 135 -76 281h-108l17 60h87v29q0 16 1 31h-71l17 60h58q14 145 76 281q81 178 226 274t298 96q43 0 87 -8q40 -10 82 -29q8 -6 16 -6q20 0 34 45h41l84 -281l-40 -1q-49 134 -138 178q-43 22 -81 32v3q-50 16 -101 16q-17 0 -34 -2q-120 -12 -226 -113.5
t-157 -273.5q-32 -104 -39 -211h706l-17 -60h-692q0 -30 2 -60h674l-17 -60h-652q17 -158 83 -298q74 -157 193 -236q102 -68 216 -69q186 3 256 91q74 91 74 185h48v-143q0 -70 -111 -127q-105 -54 -267 -56q-181 0 -325.5 98t-223.5 274z" />
    <glyph glyph-name="afii61352" unicode="&#x2116;" horiz-adv-x="2271" 
 />
    <glyph glyph-name="trademark" unicode="&#x2122;" horiz-adv-x="1497" 
 />
    <glyph glyph-name="partialdiff" unicode="&#x2202;" 
d="M232 537q0 -41 5 -79q14 -122 61.5 -230t118.5 -165q64 -53 128 -53q6 0 13 1q70 5 127.5 70.5t80.5 179.5q16 73 16 149q0 42 -5 85q-14 122 -62.5 231.5t-119.5 165.5q-65 50 -128 50h-11q-68 -5 -126 -69.5t-82 -178.5q-16 -84 -16 -157zM937 477q0 -132 -56.5 -251
t-159 -185t-214.5 -66t-214.5 66t-159 185t-56.5 251q0 131 58 251t161 185t211 65q109 0 212 -65q29 -18 54 -41q-84 235 -233.5 377t-326.5 155v55q306 0 515 -285t209 -697z" />
    <glyph glyph-name="Delta" unicode="&#x2206;" horiz-adv-x="1081" 
d="M514 1195l-406 -1072h801zM547 1434l526 -1434h-1067z" />
    <glyph glyph-name="product" unicode="&#x220f;" horiz-adv-x="1515" 
d="M511 1384q-102 0 -102 -235v-1281q0 -235 102 -235h97v-51h-560v51h96q103 0 103 235v1281q0 235 -103 235h-96v50h1419v-50h-97q-102 0 -102 -235v-1281q0 -235 102 -235h97v-50h-560v50h96q103 0 103 235v1281q0 235 -103 235h-492z" />
    <glyph glyph-name="summation" unicode="&#x2211;" horiz-adv-x="1206" 
d="M1059 548l-788 -914h635q130 0 189 182h49l-103 -232h-921v50q62 0 106 53l663 781l-663 859q-44 57 -106 57v50h921l103 -232h-49q-59 182 -189 182h-485z" />
    <glyph glyph-name="minus" unicode="&#x2212;" 
d="M87 647v140h839l1 -1v-139h-840z" />
    <glyph glyph-name="radical" unicode="&#x221a;" 
d="M181 0l-164 359l74 35l85 -185l728 1470h150v-60h-72z" />
    <glyph glyph-name="infinity" unicode="&#x221e;" 
d="M439 755q-15 103 -74 133q-46 22 -84 22q-12 0 -23 -2q-49 -10 -92.5 -44.5t-65.5 -84.5q-20 -46 -20 -90v-8q2 -48 27.5 -89t71.5 -58q29 -11 61 -11q16 0 33 3q47 10 90.5 43.5t75.5 185.5zM466 687q12 -96 94 -153q69 -48 123 -48q11 0 21 2q62 12 117.5 52t84.5 101
q26 54 26 108v11q-2 60 -35.5 108.5t-91.5 68.5q-37 13 -76 13q-22 0 -44 -4q-67 -9 -127 -62t-92 -197zM450 827q9 35 21 69q34 88 95 137t128 49t128 -48t95 -135t34 -182t-34 -182t-95 -135t-128 -48t-128 49t-95 136q-12 35 -21 70q-5 -21 -12 -41q-27 -73 -74 -113
t-99 -40t-100 41t-73.5 113.5t-25.5 149.5q0 76 25.5 149t73.5 114t100 41t99 -40t74 -112q7 -21 12 -42z" />
    <glyph glyph-name="integral" unicode="&#x222b;" horiz-adv-x="665" 
d="M-12 -281q-60 0 -60 29v159h36q1 -43 34.5 -64.5t63.5 -21.5h1q82 0 115 162q32 162 40 316l70 734l8 62q27 238 135 429.5t234 191.5q60 0 60 -29v-159h-36q-1 43 -35 64.5t-63 21.5q-71 0 -116 -155.5t-49 -363.5l-73 -767q-20 -231 -130.5 -420t-234.5 -189z" />
    <glyph glyph-name="approxequal" unicode="&#x2248;" 
d="M923 1053v-156q-63 -72 -122 -97.5t-116 -25.5q-60 0 -177.5 48.5t-176.5 48.5q-51 0 -107.5 -28t-129.5 -112v156q64 73 123 99t114 26q64 0 181.5 -49.5t172.5 -49.5q52 0 108.5 28t129.5 112zM923 705v-156q-63 -72 -122 -97.5t-116 -25.5q-60 0 -177.5 48.5
t-176.5 48.5q-51 0 -107.5 -28t-129.5 -112v156q64 73 123 99t114 26q64 0 181.5 -49.5t172.5 -49.5q52 0 108.5 28t129.5 112z" />
    <glyph glyph-name="lessequal" unicode="&#x2264;" 
d="M927 1074l-625 -359l625 -355v-167l-840 481v83l840 484v-167zM87 1v140h839l1 -1v-139h-840z" />
    <glyph glyph-name="greaterequal" unicode="&#x2265;" 
d="M87 1241l840 -484v-83l-840 -481v167l625 355l-625 359v167zM87 2v140h839l1 -1v-139h-840z" />
    <glyph glyph-name="uniF001" unicode="&#xf001;" horiz-adv-x="1073" 
 />
    <glyph glyph-name="uniF001" unicode="&#xfb01;" horiz-adv-x="1073" 
 />
    <glyph glyph-name="uniF002" unicode="&#xf002;" horiz-adv-x="1081" 
 />
    <glyph glyph-name="uniF002" unicode="&#xfb02;" horiz-adv-x="1081" 
 />
  </font>
</defs>
</svg>
